<svg width="16" height="16" viewBox="0 0 16 16" fill="none" xmlns="http://www.w3.org/2000/svg">
<g clip-path="url(#clip0_39_36)">
<path d="M7.99998 1.33334C4.31998 1.33334 1.33331 4.32 1.33331 8C1.33331 11.68 4.31998 14.6667 7.99998 14.6667C11.68 14.6667 14.6666 11.68 14.6666 8C14.6666 4.32 11.68 1.33334 7.99998 1.33334ZM8.55998 11.8467V12.1067C8.55998 12.4133 8.31331 12.66 8.00665 12.66C7.69998 12.66 7.45331 12.4133 7.45331 12.1067V11.8067C6.42665 11.5733 5.89998 10.9267 5.63331 10.4C5.47998 10.1067 5.62665 9.74 5.93331 9.61334L5.97998 9.59334C6.25331 9.48 6.55998 9.59334 6.69998 9.85334C6.91331 10.26 7.33998 10.7733 8.11998 10.7733C8.73998 10.7733 9.43998 10.46 9.43998 9.70667C9.43998 9.06667 8.97331 8.72667 7.91998 8.35334C6.97331 8.01334 5.68665 7.57334 5.68665 6.14667C5.68665 4.94 6.69998 4.31334 7.45998 4.16667V3.88667C7.44665 3.58 7.69331 3.33334 7.99998 3.33334C8.30665 3.33334 8.55331 3.58 8.55331 3.88667V4.14667C9.28665 4.26667 9.73998 4.65334 10.0133 5C10.2466 5.3 10.1333 5.73334 9.78665 5.88667C9.54665 5.98667 9.26665 5.91334 9.10665 5.70667C8.91998 5.45334 8.58665 5.19334 8.03331 5.19334C7.56665 5.19334 6.82665 5.44 6.82665 6.12C6.82665 6.85334 7.67998 7.09334 8.58665 7.39334C9.78665 7.81334 10.6066 8.44667 10.5933 9.68667C10.6 11.62 8.59331 11.84 8.55998 11.8467Z" fill="#1D212D"/>
</g>
<defs>
<clipPath id="clip0_39_36">
<rect width="16" height="16" fill="white"/>
</clipPath>
</defs>
</svg>
