<svg width="117" height="114" viewBox="0 0 117 114" fill="none" xmlns="http://www.w3.org/2000/svg">
<g clip-path="url(#clip0_16_2)">
<path d="M117 10.1802V11.1834C106.985 24.6696 66.4326 22.1388 53.6211 13.8852C45.7119 8.80081 60.9921 3.78481 64.0458 3.08941C77.0796 0.114008 107.231 -1.88099 117 10.1802Z" fill="black"/>
<path d="M117 18.3882V28.2834C108.962 39.3528 81.7947 38.3952 69.3108 36.48C64.3851 35.7276 54.2061 33.345 51.9948 29.3436C50.9301 27.4056 51.4098 21.147 51.5619 18.8214C51.5931 18.373 51.8076 18.259 52.2054 18.4794C69.8724 28.3404 99.3096 26.9382 117 18.3882Z" fill="black"/>
<path d="M117 35.4996V45.7368C111.501 50.6236 104.286 53.428 95.355 54.15C85.7064 54.9328 77.6022 54.8948 71.0424 54.036C70.6056 53.9828 70.3677 53.7434 70.3287 53.3178C69.4746 45.0756 59.0733 41.7126 52.0884 40.3332C51.6828 40.2572 51.48 40.0178 51.48 39.615V35.9442C51.48 35.4654 51.6945 35.3438 52.1235 35.5794C70.1181 45.5202 99.1575 44.0154 117 35.4996Z" fill="black"/>
<path d="M45.7353 43.7646C50.7663 44.5056 63.3438 46.8312 65.3562 52.2804C65.481 52.6376 65.4693 52.9872 65.3211 53.3292C63.5076 57.456 55.9377 59.679 51.4683 60.6138C38.8323 63.2472 10.3779 64.7292 0.70199 54.3096C0.43679 54.0284 0.29639 53.6978 0.28079 53.3178C0.22619 51.8814 0.74879 50.7604 1.84859 49.9548C12.4137 42.18 33.4152 41.9634 45.7353 43.7646Z" fill="black"/>
<path d="M117 52.7934V62.4834C111.524 73.1652 80.7066 72.447 70.8669 71.079C70.4223 71.0182 70.2 70.7674 70.2 70.3266L70.2117 59.1318C70.2117 58.6606 70.4496 58.4592 70.9254 58.5276C87.165 60.7164 101.966 59.1546 117 52.7934Z" fill="black"/>
<path d="M1.65403e-06 66.6216V60.534C5.3664 62.9052 10.4364 64.5582 15.21 65.493C30.9816 68.571 50.0994 67.9554 64.8063 60.6024C65.2275 60.3896 65.4498 60.515 65.4732 60.9786C65.6019 64.068 66.3039 69.597 64.2213 71.9796C61.2612 75.3654 54.054 77.235 50.2281 77.9646C35.3808 80.826 19.0944 80.541 5.0427 74.556C1.4235 73.0132 -0.257398 70.3684 1.65403e-06 66.6216Z" fill="black"/>
<path d="M117 69.8934V79.686C107.734 90.5388 83.1636 89.9346 70.8786 88.2132C70.4262 88.1524 70.2 87.8978 70.2 87.4494L70.2117 76.1748C70.2117 75.658 70.473 75.4414 70.9956 75.525C86.9934 78.1242 102.328 76.247 117 69.8934Z" fill="black"/>
<path d="M2.07499e-06 83.7216V77.6568C6.3648 80.484 12.9675 82.3802 19.8081 83.3454C34.2342 85.3746 51.9597 84.5196 64.8063 77.52C65.2743 77.2616 65.5083 77.3946 65.5083 77.919C65.5434 80.0622 66.4443 87.2898 63.999 89.148C50.4153 99.4764 18.9306 98.7354 4.446 91.3482C1.1934 89.6838 -0.288598 87.1416 2.07499e-06 83.7216Z" fill="black"/>
<path d="M0 99.6816V94.5858C18.6381 103.124 46.6245 104.276 64.7829 94.6314C65.2353 94.3958 65.4693 94.525 65.4849 95.019C65.6136 98.553 66.7134 105.359 62.7588 107.673C48.3093 116.143 14.8005 116.394 1.1349 106.191C0.8151 105.948 0.6318 105.625 0.585 105.222L0 99.6816Z" fill="black"/>
</g>
<defs>
<clipPath id="clip0_16_2">
<rect width="117" height="114" fill="white"/>
</clipPath>
</defs>
</svg>
