<svg width="30" height="30" viewBox="0 0 30 30" fill="none" xmlns="http://www.w3.org/2000/svg">
<g clip-path="url(#clip0_124_83)">
<path d="M30 2.67901V2.94301C27.432 6.49201 17.034 5.82601 13.749 3.65401C11.721 2.31601 15.639 0.996009 16.422 0.813008C19.764 0.0300085 27.495 -0.494991 30 2.67901Z" fill="#1D212D"/>
<path d="M30 4.83899V7.44299C27.939 10.356 20.973 10.104 17.772 9.59999C16.509 9.40199 13.899 8.77499 13.332 7.72199C13.059 7.21199 13.182 5.56499 13.221 4.95299C13.229 4.83499 13.284 4.80499 13.386 4.86299C17.916 7.45799 25.464 7.08899 30 4.83899Z" fill="#1D212D"/>
<path d="M30 9.34201V12.036C28.59 13.322 26.74 14.06 24.45 14.25C21.976 14.456 19.898 14.446 18.216 14.22C18.104 14.206 18.043 14.143 18.033 14.031C17.814 11.862 15.147 10.977 13.356 10.614C13.252 10.594 13.2 10.531 13.2 10.425V9.45901C13.2 9.33301 13.255 9.30101 13.365 9.36301C17.979 11.979 25.425 11.583 30 9.34201Z" fill="#1D212D"/>
<path d="M11.727 11.517C13.017 11.712 16.242 12.324 16.758 13.758C16.79 13.852 16.787 13.944 16.749 14.034C16.284 15.12 14.343 15.705 13.197 15.951C9.95698 16.644 2.66098 17.034 0.179977 14.292C0.111977 14.218 0.0759771 14.131 0.0719771 14.031C0.0579771 13.653 0.191977 13.358 0.473977 13.146C3.18298 11.1 8.56798 11.043 11.727 11.517Z" fill="#1D212D"/>
<path d="M30 13.893V16.443C28.596 19.254 20.694 19.065 18.171 18.705C18.057 18.689 18 18.623 18 18.507L18.003 15.561C18.003 15.437 18.064 15.384 18.186 15.402C22.35 15.978 26.145 15.567 30 13.893Z" fill="#1D212D"/>
<path d="M4.26793e-05 17.532V15.93C1.37604 16.554 2.67604 16.989 3.90004 17.235C7.94404 18.045 12.846 17.883 16.617 15.948C16.725 15.892 16.782 15.925 16.788 16.047C16.821 16.86 17.001 18.315 16.467 18.942C15.708 19.833 13.86 20.325 12.879 20.517C9.07204 21.27 4.89604 21.195 1.29304 19.62C0.365043 19.214 -0.0659573 18.518 4.26793e-05 17.532Z" fill="#1D212D"/>
<path d="M30 18.393V20.97C27.624 23.826 21.324 23.667 18.174 23.214C18.058 23.198 18 23.131 18 23.013L18.003 20.046C18.003 19.91 18.07 19.853 18.204 19.875C22.306 20.559 26.238 20.065 30 18.393Z" fill="#1D212D"/>
<path d="M1.30525e-05 22.032V20.436C1.63201 21.18 3.32501 21.679 5.07901 21.933C8.77801 22.467 13.323 22.242 16.617 20.4C16.737 20.332 16.797 20.367 16.797 20.505C16.806 21.069 17.037 22.971 16.41 23.46C12.927 26.178 4.85401 25.983 1.14001 24.039C0.306013 23.601 -0.0739869 22.932 1.30525e-05 22.032Z" fill="#1D212D"/>
<path d="M0 26.232V24.891C4.779 27.138 11.955 27.441 16.611 24.903C16.727 24.841 16.787 24.875 16.791 25.005C16.824 25.935 17.106 27.726 16.092 28.335C12.387 30.564 3.795 30.63 0.291 27.945C0.209 27.881 0.162 27.796 0.15 27.69L0 26.232Z" fill="#1D212D"/>
</g>
<defs>
<clipPath id="clip0_124_83">
<rect width="30" height="30" fill="white"/>
</clipPath>
</defs>
</svg>
