<svg width="30" height="30" viewBox="0 0 30 30" fill="none" xmlns="http://www.w3.org/2000/svg">
<g clip-path="url(#clip0_136_133)">
<path d="M30 2.67901V2.94301C27.432 6.49201 17.034 5.82601 13.749 3.65401C11.721 2.31601 15.639 0.996009 16.422 0.813008C19.764 0.0300085 27.495 -0.494991 30 2.67901Z" fill="white"/>
<path d="M30 4.83902V7.44302C27.939 10.356 20.973 10.104 17.772 9.60002C16.509 9.40202 13.899 8.77502 13.332 7.72202C13.059 7.21202 13.182 5.56502 13.221 4.95302C13.229 4.83502 13.284 4.80502 13.386 4.86302C17.916 7.45802 25.464 7.08902 30 4.83902Z" fill="#F8F8F8"/>
<path d="M30 9.34195V12.0359C28.59 13.3219 26.74 14.0599 24.45 14.2499C21.976 14.4559 19.898 14.4459 18.216 14.2199C18.104 14.2059 18.043 14.1429 18.033 14.0309C17.814 11.8619 15.147 10.9769 13.356 10.6139C13.252 10.5939 13.2 10.5309 13.2 10.4249V9.45895C13.2 9.33295 13.255 9.30095 13.365 9.36295C17.979 11.9789 25.425 11.5829 30 9.34195Z" fill="white"/>
<path d="M11.727 11.517C13.017 11.712 16.242 12.324 16.758 13.758C16.79 13.852 16.787 13.944 16.749 14.034C16.284 15.12 14.343 15.705 13.197 15.951C9.95698 16.644 2.66098 17.034 0.179977 14.292C0.111977 14.218 0.0759771 14.131 0.0719771 14.031C0.0579771 13.653 0.191977 13.358 0.473977 13.146C3.18298 11.1 8.56798 11.043 11.727 11.517Z" fill="white"/>
<path d="M30 13.8929V16.4429C28.596 19.2539 20.694 19.0649 18.171 18.7049C18.057 18.6889 18 18.6229 18 18.5069L18.003 15.5609C18.003 15.4369 18.064 15.3839 18.186 15.4019C22.35 15.9779 26.145 15.5669 30 13.8929Z" fill="white"/>
<path d="M-1.83568e-05 17.5321V15.9301C1.37598 16.5541 2.67598 16.9891 3.89998 17.2351C7.94398 18.0451 12.846 17.8831 16.617 15.9481C16.725 15.8921 16.782 15.9251 16.788 16.0471C16.821 16.8601 17.001 18.3151 16.467 18.9421C15.708 19.8331 13.86 20.3251 12.879 20.5171C9.07198 21.2701 4.89598 21.1951 1.29298 19.6201C0.364982 19.2141 -0.0660184 18.5181 -1.83568e-05 17.5321Z" fill="white"/>
<path d="M30 18.3929V20.9699C27.624 23.8259 21.324 23.6669 18.174 23.2139C18.058 23.1979 18 23.1309 18 23.0129L18.003 20.0459C18.003 19.9099 18.07 19.8529 18.204 19.8749C22.306 20.5589 26.238 20.0649 30 18.3929Z" fill="white"/>
<path d="M1.30525e-05 22.032V20.436C1.63201 21.18 3.32501 21.679 5.07901 21.933C8.77801 22.467 13.323 22.242 16.617 20.4C16.737 20.332 16.797 20.367 16.797 20.505C16.806 21.069 17.037 22.971 16.41 23.46C12.927 26.178 4.85401 25.983 1.14001 24.039C0.306013 23.601 -0.0739869 22.932 1.30525e-05 22.032Z" fill="white"/>
<path d="M0 26.232V24.891C4.779 27.138 11.955 27.441 16.611 24.903C16.727 24.841 16.787 24.875 16.791 25.005C16.824 25.935 17.106 27.726 16.092 28.335C12.387 30.564 3.795 30.63 0.291 27.945C0.209 27.881 0.162 27.796 0.15 27.69L0 26.232Z" fill="white"/>
</g>
<defs>
<clipPath id="clip0_136_133">
<rect width="30" height="30" fill="white"/>
</clipPath>
</defs>
</svg>
