<svg width="25" height="25" viewBox="0 0 25 25" fill="none" xmlns="http://www.w3.org/2000/svg">
<path d="M9.80393 0C4.39853 0 0 4.39853 0 9.80393C0 15.2093 4.39853 19.6079 9.80393 19.6079C11.7521 19.6079 13.5649 19.0302 15.0927 18.0463L21.4346 24.3882C22.2503 25.2039 23.573 25.2039 24.3882 24.3882C25.2039 23.5725 25.2039 22.2503 24.3882 21.4346L18.0463 15.0927C19.0302 13.5649 19.6079 11.7521 19.6079 9.80393C19.6079 4.39853 15.2093 0 9.80393 0ZM9.80393 3.92157C13.0471 3.92157 15.6863 6.56079 15.6863 9.80393C15.6863 13.0471 13.0471 15.6863 9.80393 15.6863C6.56079 15.6863 3.92157 13.0471 3.92157 9.80393C3.92157 6.56079 6.56079 3.92157 9.80393 3.92157Z" fill="#33373D"/>
</svg>
