<svg width="24" height="25" viewBox="0 0 24 25" fill="none" xmlns="http://www.w3.org/2000/svg">
<path d="M10.048 0C9.44924 0 8.9374 0.423238 8.8224 1.01074L8.40493 3.15429C7.37898 3.54224 6.43033 4.08425 5.59731 4.76806L3.54165 4.06005C2.9754 3.86505 2.35239 4.09919 2.05239 4.61669L0.167626 7.88329C-0.131125 8.40204 -0.0223995 9.06062 0.428851 9.45312L2.0768 10.8862C1.9911 11.4129 1.9352 11.9491 1.9352 12.5C1.9352 13.0509 1.9911 13.5871 2.0768 14.1138L0.428851 15.5469C-0.0223995 15.9394 -0.131125 16.5979 0.167626 17.1167L2.05239 20.3833C2.35114 20.902 2.9754 21.1361 3.54165 20.9424L5.59731 20.2344C6.43006 20.9178 7.37945 21.4579 8.40493 21.8457L8.8224 23.9892C8.9374 24.5767 9.44924 25 10.048 25H13.8224C14.4212 25 14.933 24.5767 15.048 23.9892L15.4655 21.8457C16.4914 21.4577 17.4401 20.9157 18.2731 20.2319L20.3288 20.9399C20.895 21.1349 21.518 20.902 21.818 20.3833L23.7028 17.1143C24.0015 16.5955 23.8928 15.9394 23.4416 15.5469L21.7936 14.1138C21.8793 13.5871 21.9352 13.0509 21.9352 12.5C21.9352 11.9491 21.8793 11.4129 21.7936 10.8862L23.4416 9.45312C23.8928 9.06062 24.0015 8.40204 23.7028 7.88329L21.818 4.61669C21.5193 4.09794 20.895 3.86385 20.3288 4.0576L18.2731 4.76561C17.4403 4.08223 16.491 3.54206 15.4655 3.15429L15.048 1.01074C14.933 0.423238 14.4212 0 13.8224 0H10.048ZM11.9352 7.5C14.6965 7.5 16.9352 9.73875 16.9352 12.5C16.9352 15.2613 14.6965 17.5 11.9352 17.5C9.17395 17.5 6.9352 15.2613 6.9352 12.5C6.9352 9.73875 9.17395 7.5 11.9352 7.5Z" fill="#F2F2F3"/>
</svg>
