<?xml version="1.0" encoding="UTF-8" standalone="no"?>
<!DOCTYPE svg PUBLIC "-//W3C//DTD SVG 1.1//EN" "http://www.w3.org/Graphics/SVG/1.1/DTD/svg11.dtd">
<svg xmlns="http://www.w3.org/2000/svg" version="1.1" viewBox="0.00 0.00 100.00 100.00">
<path fill="#000000" d="
  M 100.00 8.93
  L 100.00 9.81
  C 91.44 21.64 56.78 19.42 45.83 12.18
  C 39.07 7.72 52.13 3.32 54.74 2.71
  C 65.88 0.10 91.65 -1.65 100.00 8.93
  Z"
/>
<path fill="#000000" d="
  M 100.00 16.13
  L 100.00 24.81
  C 93.13 34.52 69.91 33.68 59.24 32.00
  C 55.03 31.34 46.33 29.25 44.44 25.74
  C 43.53 24.04 43.94 18.55 44.07 16.51
  Q 44.11 15.92 44.62 16.21
  C 59.72 24.86 84.88 23.63 100.00 16.13
  Z"
/>
<path fill="#000000" d="
  M 100.00 31.14
  L 100.00 40.12
  Q 92.95 46.55 81.50 47.50
  Q 69.13 48.53 60.72 47.40
  Q 60.16 47.33 60.11 46.77
  C 59.38 39.54 50.49 36.59 44.52 35.38
  Q 44.00 35.28 44.00 34.75
  L 44.00 31.53
  Q 44.00 30.90 44.55 31.21
  C 59.93 39.93 84.75 38.61 100.00 31.14
  Z"
/>
<path fill="#000000" d="
  M 39.09 38.39
  C 43.39 39.04 54.14 41.08 55.86 45.86
  Q 56.02 46.33 55.83 46.78
  C 54.28 50.40 47.81 52.35 43.99 53.17
  C 33.19 55.48 8.87 56.78 0.60 47.64
  Q 0.26 47.27 0.24 46.77
  Q 0.17 44.88 1.58 43.82
  C 10.61 37.00 28.56 36.81 39.09 38.39
  Z"
/>
<path fill="#000000" d="
  M 100.00 46.31
  L 100.00 54.81
  C 95.32 64.18 68.98 63.55 60.57 62.35
  Q 60.00 62.27 60.00 61.69
  L 60.01 51.87
  Q 60.01 51.25 60.62 51.34
  C 74.50 53.26 87.15 51.89 100.00 46.31
  Z"
/>
<path fill="#000000" d="
  M 0.00 58.44
  L 0.00 53.10
  Q 6.88 56.22 13.00 57.45
  C 26.48 60.15 42.82 59.61 55.39 53.16
  Q 55.93 52.88 55.96 53.49
  C 56.07 56.20 56.67 61.05 54.89 63.14
  C 52.36 66.11 46.20 67.75 42.93 68.39
  C 30.24 70.90 16.32 70.65 4.31 65.40
  Q -0.33 63.37 0.00 58.44
  Z"
/>
<path fill="#000000" d="
  M 100.00 61.31
  L 100.00 69.90
  C 92.08 79.42 71.08 78.89 60.58 77.38
  Q 60.00 77.30 60.00 76.71
  L 60.01 66.82
  Q 60.01 66.14 60.68 66.25
  Q 81.19 69.67 100.00 61.31
  Z"
/>
<path fill="#000000" d="
  M 0.00 73.44
  L 0.00 68.12
  Q 8.16 71.84 16.93 73.11
  C 29.26 74.89 44.41 74.14 55.39 68.00
  Q 55.99 67.66 55.99 68.35
  C 56.02 70.23 56.79 76.57 54.70 78.20
  C 43.09 87.26 16.18 86.61 3.80 80.13
  Q -0.37 77.94 0.00 73.44
  Z"
/>
<path fill="#000000" d="
  M 0.00 87.44
  L 0.00 82.97
  C 15.93 90.46 39.85 91.47 55.37 83.01
  Q 55.95 82.70 55.97 83.35
  C 56.08 86.45 57.02 92.42 53.64 94.45
  C 41.29 101.88 12.65 102.10 0.97 93.15
  Q 0.56 92.83 0.50 92.30
  L 0.00 87.44
  Z"
/>
</svg>
