<svg width="26" height="27" viewBox="0 0 26 27" fill="none" xmlns="http://www.w3.org/2000/svg">
<path id="Icon" fill-rule="evenodd" clip-rule="evenodd" d="M14.149 0.494257C13.5144 -0.164752 12.4856 -0.164752 11.851 0.494257L0.475951 12.3068C0.428173 12.3564 0.383354 12.4091 0.341797 12.4645L0.34077 12.4657C0.11359 12.7691 0 13.1346 0 13.5C0 13.7283 0.0436434 13.9459 0.122735 14.1445C0.20146 14.3426 0.318057 14.5283 0.472525 14.6897M0.476706 14.694L11.851 26.5057L12.004 26.6461C12.6415 27.1609 13.5633 27.1141 14.149 26.5057L14.2842 26.3468C14.7799 25.6848 14.7348 24.7276 14.149 24.1193L5.54917 15.1875H24.375L24.5645 15.1761C25.3727 15.0787 26 14.3654 26 13.5C26 12.568 25.2725 11.8125 24.375 11.8125H5.54917L14.149 2.88074L14.2842 2.72177C14.7799 2.05978 14.7348 1.10257 14.149 0.494257" fill="#F8F8F8"/>
</svg>
