<svg width="280" height="44" viewBox="0 0 280 44" fill="none" xmlns="http://www.w3.org/2000/svg">
<line x1="4.37114e-08" y1="21.5" x2="280" y2="21.5" stroke="#33373D"/>
<circle cx="140" cy="22" r="22" fill="#33373D"/>
<path d="M141.23 25.75C141.23 26.0214 141.318 26.2855 141.482 26.5022C141.645 26.719 141.874 26.8767 142.135 26.9516C142.396 27.0264 142.674 27.0143 142.928 26.917C143.181 26.8198 143.396 26.6427 143.54 26.4125L146.9 23.0537C147.016 22.9376 147.108 22.7998 147.171 22.648C147.234 22.4963 147.266 22.3337 147.266 22.1696C147.266 22.0054 147.233 21.8428 147.171 21.6911C147.108 21.5395 147.015 21.4017 146.899 21.2856C146.783 21.1696 146.645 21.0775 146.494 21.0147C146.342 20.952 146.179 20.9197 146.015 20.9197C145.851 20.9198 145.688 20.9522 145.537 21.0151C145.385 21.078 145.247 21.1701 145.131 21.2862L143.731 22.6862V13.25C143.731 12.9185 143.6 12.6005 143.365 12.3661C143.131 12.1317 142.813 12 142.481 12C142.15 12 141.832 12.1317 141.597 12.3661C141.363 12.6005 141.231 12.9185 141.231 13.25V25.6875V25.75H141.23Z" fill="white"/>
<path d="M138.77 18.25C138.77 17.9786 138.682 17.7145 138.518 17.4978C138.355 17.281 138.126 17.1233 137.865 17.0484C137.604 16.9736 137.326 16.9857 137.072 17.083C136.819 17.1802 136.604 17.3573 136.46 17.5875L133.101 20.9463C132.982 21.0616 132.887 21.1995 132.821 21.352C132.756 21.5045 132.721 21.6685 132.72 21.8345C132.718 22.0005 132.75 22.1651 132.813 22.3187C132.876 22.4723 132.968 22.6119 133.086 22.7292C133.203 22.8466 133.343 22.9394 133.496 23.0023C133.65 23.0651 133.815 23.0968 133.98 23.0953C134.146 23.0939 134.31 23.0594 134.463 22.9939C134.616 22.9284 134.753 22.8331 134.869 22.7138L136.27 21.3138V30.75C136.27 31.0815 136.402 31.3995 136.636 31.6339C136.871 31.8683 137.188 32 137.52 32C137.852 32 138.169 31.8683 138.404 31.6339C138.638 31.3995 138.77 31.0815 138.77 30.75V18.3125V18.25Z" fill="white"/>
</svg>
