<svg width="20" height="20" viewBox="0 0 20 20" fill="none" xmlns="http://www.w3.org/2000/svg">
<g id="Group">
<path id="Vector" opacity="0.919" fill-rule="evenodd" clip-rule="evenodd" d="M9.58241 0.020199C10.1722 -0.0709684 10.6245 0.146475 10.9396 0.672528C11.683 2.43854 12.4834 4.17808 13.3407 5.89116C15.1297 6.32822 16.9392 6.65439 18.7694 6.86966C19.8019 6.92902 20.1847 7.47263 19.9177 8.50048C18.589 9.95704 17.197 11.3342 15.7419 12.6319C15.87 14.6671 16.1136 16.6966 16.4726 18.7203C16.541 19.7009 16.1234 20.0995 15.2199 19.9162C13.4723 19.0063 11.7324 18.1003 10 17.1982C8.26761 18.1003 6.52766 19.0063 4.78014 19.9162C4.32062 20.0956 3.93784 19.9869 3.63177 19.5901C3.79515 17.265 4.00394 14.9456 4.25815 12.6319C2.80302 11.3342 1.41105 9.95704 0.0822588 8.50048C-0.184691 7.47263 0.198098 6.92902 1.23063 6.86966C3.06078 6.65439 4.87032 6.32822 6.65929 5.89116C7.58623 3.88738 8.56061 1.93039 9.58241 0.020199ZM9.79121 3.49929C9.97419 3.47083 10.1134 3.54332 10.2088 3.71673C10.8251 5.10967 11.5211 6.45056 12.2967 7.73943C13.8943 8.04959 15.4951 8.33951 17.099 8.6092C16.0202 9.73266 14.9415 10.8561 13.8627 11.9796C13.7966 13.6335 13.9705 15.2643 14.3847 16.872C14.3151 16.9808 14.2455 17.0895 14.1759 17.1982C12.8411 16.3582 11.4491 15.6334 10 15.0238C8.5509 15.6334 7.15893 16.3582 5.82411 17.1982C5.75452 17.0895 5.68491 16.9808 5.61532 16.872C6.02946 15.2643 6.20345 13.6335 6.1373 11.9796C5.05852 10.8561 3.97976 9.73266 2.90099 8.6092C4.50495 8.33951 6.10569 8.04959 7.70326 7.73943C8.53798 6.39948 9.23395 4.9861 9.79121 3.49929Z" fill="#32363C"/>
</g>
</svg>
